<?xml version="1.0" encoding="UTF-8"?>
<svg version="1.1" xmlns="http://www.w3.org/2000/svg" width="209" height="142">
<path d="M0 0 C6.35344804 4.71635341 9.9359869 9.59275273 13.359375 16.66015625 C14.09834015 18.12884911 14.09834015 18.12884911 14.85223389 19.62721252 C16.266359 22.44483899 17.66395729 25.27010736 19.05789185 28.09775543 C20.76834716 31.55139748 22.50598807 34.99136677 24.24023438 38.43310547 C28.52981414 46.95494368 32.79168172 55.49045825 37.04864502 64.02862549 C39.07908398 68.09992226 41.11192397 72.17001984 43.14453125 76.24023438 C47.09863676 84.1590185 51.05018592 92.07907448 55 100 C57.475 99.505 57.475 99.505 60 99 C58.74159266 94.99891646 57.27352334 91.3050978 55.38623047 87.5612793 C54.60564774 86.00518196 54.60564774 86.00518196 53.80929565 84.41764832 C52.97170212 82.76265068 52.97170212 82.76265068 52.1171875 81.07421875 C51.25578659 79.35921928 51.25578659 79.35921928 50.37698364 77.60957336 C48.85747219 74.58531491 47.33473477 71.56273126 45.81005859 68.54107666 C43.65367916 64.26646262 41.50157201 59.98970473 39.35159302 55.71186829 C38.20751419 53.43602045 37.06129951 51.16124488 35.91281128 48.88761902 C35.14168503 47.35516289 35.14168503 47.35516289 34.35498047 45.79174805 C33.67119827 44.43656319 33.67119827 44.43656319 32.97360229 43.05400085 C32 41 32 41 32 40 C36.75050819 39.90086426 41.50040976 39.82840736 46.25170898 39.78027344 C47.86672458 39.76020108 49.48166789 39.7329367 51.09643555 39.69824219 C53.42254501 39.64952785 55.74769093 39.62698846 58.07421875 39.609375 C58.79212082 39.58872986 59.51002289 39.56808472 60.24967957 39.54681396 C65.27807221 39.54458093 67.42491591 40.5481463 71 44 C72.52466499 46.49448134 73.85120568 48.89101769 75.13183594 51.50317383 C75.70110558 52.62835167 75.70110558 52.62835167 76.28187561 53.77626038 C77.52804498 56.24736127 78.75661159 58.72674035 79.984375 61.20703125 C80.84846319 62.93370453 81.71332276 64.65999198 82.57891846 66.38591003 C84.38861002 70.00096478 86.18977346 73.62010505 87.98486328 77.24243164 C90.28216043 81.87678001 92.59893223 86.50105583 94.92202377 91.12251759 C96.71041772 94.68509701 98.48904386 98.25248256 100.2647171 101.82141685 C101.11509158 103.52800136 101.96831024 105.23317177 102.82445526 106.93686867 C104.02139169 109.32271838 105.20517907 111.71465775 106.38574219 114.10864258 C106.91558464 115.15550232 106.91558464 115.15550232 107.45613098 116.22351074 C110.04572291 121.52758828 111.80500792 126.38372425 110 132.25 C107.53579272 135.63828501 104.89378622 136.79040253 101 138 C97.62426853 138.36914349 97.62426853 138.36914349 94.04603577 138.36076355 C93.38260286 138.36332682 92.71916996 138.3658901 92.03563303 138.36853105 C89.83217619 138.37343778 87.62941815 138.35702876 85.42602539 138.34057617 C83.83880632 138.33972922 82.25158607 138.34020637 80.66436768 138.34190369 C76.36936087 138.34276241 72.07460677 138.32515658 67.77965856 138.30418181 C63.28601576 138.28539454 58.79236681 138.28366296 54.2986908 138.28010559 C45.79549446 138.27079115 37.2924142 138.2461855 28.78926891 138.21605712 C19.10611494 138.18249441 9.42295534 138.1660224 -0.26024234 138.15097082 C-20.17355961 138.11963541 -40.08677249 138.06688659 -60 138 C-57.81915936 131.31314815 -54.85069024 125.18043048 -51.75 118.875 C-51.18925781 117.69550781 -50.62851562 116.51601562 -50.05078125 115.30078125 C-49.49261719 114.16769531 -48.93445312 113.03460938 -48.359375 111.8671875 C-47.85889648 110.83706543 -47.35841797 109.80694336 -46.84277344 108.74560547 C-44.36787395 105.05817573 -41.39822638 102.77083323 -37.13671875 101.40110779 C-34.63942173 100.93231175 -32.31416516 100.88030542 -29.77246094 100.88647461 C-28.73168396 100.88655014 -27.69090698 100.88662567 -26.61859131 100.88670349 C-25.50179993 100.89186478 -24.38500854 100.89702606 -23.234375 100.90234375 C-21.51157318 100.90446617 -21.51157318 100.90446617 -19.75396729 100.90663147 C-16.08595169 100.91222857 -12.41799715 100.92478056 -8.75 100.9375 C-6.26302171 100.94251537 -3.77604247 100.94707822 -1.2890625 100.95117188 C4.8073125 100.96219705 10.90365189 100.97893231 17 101 C14.00041233 93.01060003 10.3523792 85.42750562 6.51953125 77.80859375 C5.89958408 76.56989444 5.27993515 75.33104583 4.66056824 74.09205627 C3.37295061 71.51837229 2.08268785 68.94603922 0.7902832 66.37475586 C-0.86828824 63.07475186 -2.52146008 59.77207861 -4.17287731 56.46848965 C-5.44688787 53.92073964 -6.72297506 51.37403467 -7.99978065 48.8276844 C-8.61068973 47.60905028 -9.22111327 46.39017263 -9.83104515 45.17104912 C-10.67856099 43.47817529 -11.52902409 41.78677792 -12.37963867 40.09545898 C-13.10433601 38.651782 -13.10433601 38.651782 -13.84367371 37.17893982 C-14.81977927 35.08250834 -14.81977927 35.08250834 -16 34 C-33.16 68.32 -50.32 102.64 -68 138 C-91.67857143 138 -91.67857143 138 -96.9375 133.25 C-98.44095159 130.06622016 -98.55681222 127.417123 -98 124 C-96.55847961 120.08264636 -94.68583565 116.40525838 -92.80273438 112.68383789 C-92.24987762 111.56425186 -91.69702087 110.44466583 -91.12741089 109.29115295 C-89.61264323 106.23192094 -88.08556666 103.17950992 -86.55156517 100.12992024 C-85.26893471 97.57586287 -83.99519258 95.01741954 -82.72145128 92.45892042 C-79.71320069 86.41658156 -76.69086845 80.38143923 -73.65917969 74.35083008 C-70.54190508 68.14946606 -67.44645815 61.9375711 -64.36202383 55.71981627 C-61.70530349 50.3659193 -59.03604654 45.01840764 -56.35661936 39.67583841 C-54.75997413 36.49210551 -53.1677727 33.30635984 -51.58720398 30.11461067 C-49.82054608 26.54897558 -48.02772836 22.99685971 -46.23242188 19.44555664 C-45.71884125 18.40063049 -45.20526062 17.35570435 -44.67611694 16.27911377 C-40.09213882 7.30510537 -34.51012349 -0.00572445 -24.703125 -3.375 C-16.10849728 -5.36219716 -7.59893878 -4.65027081 0 0 Z " fill="#DC8AFF" transform="translate(98,4)"/>
<path d="M0 0 C4.75050819 -0.09913574 9.50040976 -0.17159264 14.25170898 -0.21972656 C15.86672458 -0.23979892 17.48166789 -0.2670633 19.09643555 -0.30175781 C21.42254501 -0.35047215 23.74769093 -0.37301154 26.07421875 -0.390625 C26.79212082 -0.41127014 27.51002289 -0.43191528 28.24967957 -0.45318604 C33.27807221 -0.45541907 35.42491591 0.5481463 39 4 C40.52466499 6.49448134 41.85120568 8.89101769 43.13183594 11.50317383 C43.51134903 12.25329239 43.89086212 13.00341095 44.28187561 13.77626038 C45.52804498 16.24736127 46.75661159 18.72674035 47.984375 21.20703125 C48.84846319 22.93370453 49.71332276 24.65999198 50.57891846 26.38591003 C52.38861002 30.00096478 54.18977346 33.62010505 55.98486328 37.24243164 C58.28216043 41.87678001 60.59893223 46.50105583 62.92202377 51.12251759 C64.71041772 54.68509701 66.48904386 58.25248256 68.2647171 61.82141685 C69.11509158 63.52800136 69.96831024 65.23317177 70.82445526 66.93686867 C72.02139169 69.32271838 73.20517907 71.71465775 74.38574219 74.10864258 C74.91558464 75.15550232 74.91558464 75.15550232 75.45613098 76.22351074 C78.04572291 81.52758828 79.80500792 86.38372425 78 92.25 C75.51724732 95.66378493 72.97146228 96.90135421 69 98 C65.67391257 98.33502646 62.4008724 98.28650876 59.0625 98.1875 C57.75055664 98.16719727 57.75055664 98.16719727 56.41210938 98.14648438 C54.27446914 98.11144109 52.13715016 98.05764541 50 98 C44.3419853 87.35811704 38.76890008 76.68809822 33.48876953 65.85253906 C33.10446777 65.07233398 32.72016602 64.29212891 32.32421875 63.48828125 C31.99510498 62.81321533 31.66599121 62.13814941 31.3269043 61.44262695 C30.20121726 59.37041006 29.00241139 57.43007344 27.72705078 55.44970703 C24.45600264 50.26181603 21.76845254 44.80496035 19.04296875 39.31640625 C18.49514236 38.22029526 17.94731598 37.12418427 17.38288879 35.99485779 C16.23390809 33.6938907 15.08685939 31.39195795 13.94165039 29.08911133 C12.17994114 25.54730337 10.41174455 22.00879111 8.64257812 18.47070312 C7.52566203 16.2319602 6.40911232 13.99303443 5.29296875 11.75390625 C4.76180954 10.69047501 4.23065033 9.62704376 3.68339539 8.53138733 C3.19901505 7.5562468 2.7146347 6.58110626 2.21557617 5.57641602 C1.78653488 4.71452164 1.35749359 3.85262726 0.91545105 2.96461487 C0 1 0 1 0 0 Z " fill="#E38FFF" transform="translate(130,44)"/>
<path d="M0 0 C2.99257832 2.60436731 4.57680181 5.62335737 6.43359375 9.1015625 C6.75280289 9.69746185 7.07201202 10.29336121 7.40089417 10.90731812 C8.07494289 12.16844154 8.74635008 13.43097991 9.4152832 14.69482422 C10.4247083 16.60084639 11.44304092 18.50188309 12.46289062 20.40234375 C15.90565641 26.8579562 19.01968267 33.29428602 22 40 C-10.67 40 -43.34 40 -77 40 C-74.76494043 33.29482129 -71.86298787 27.20543842 -68.75 20.875 C-68.18925781 19.69550781 -67.62851563 18.51601562 -67.05078125 17.30078125 C-66.49261719 16.16769531 -65.93445313 15.03460938 -65.359375 13.8671875 C-64.85889648 12.83706543 -64.35841797 11.80694336 -63.84277344 10.74560547 C-61.36787395 7.05817573 -58.39822638 4.77083323 -54.13671875 3.40110779 C-51.63942173 2.93231175 -49.31416516 2.88030542 -46.77246094 2.88647461 C-45.73168396 2.88655014 -44.69090698 2.88662567 -43.61859131 2.88670349 C-42.50179993 2.89186478 -41.38500854 2.89702606 -40.234375 2.90234375 C-39.08584045 2.9037587 -37.93730591 2.90517365 -36.75396729 2.90663147 C-33.08595169 2.91222857 -29.41799715 2.92478056 -25.75 2.9375 C-23.26302171 2.94251537 -20.77604247 2.94707822 -18.2890625 2.95117188 C-12.1926875 2.96219705 -6.09634811 2.97893231 0 3 C0 2.01 0 1.02 0 0 Z " fill="#C278FF" transform="translate(115,102)"/>
<path d="M0 0 C4.3049777 -0.07451364 8.60960734 -0.12877223 12.91503906 -0.16479492 C14.37767075 -0.17982196 15.84025782 -0.20024955 17.30273438 -0.22631836 C19.4128728 -0.26297267 21.52241226 -0.27978676 23.6328125 -0.29296875 C24.90012207 -0.3086792 26.16743164 -0.32438965 27.47314453 -0.34057617 C32.15762251 0.11178758 35.48743988 1.33749345 38.69189453 4.85961914 C42.4441877 10.88486912 45.74362523 17.06838583 48.875 23.4375 C49.37257812 24.42943359 49.87015625 25.42136719 50.3828125 26.44335938 C54 33.73238968 54 33.73238968 54 36 C42.12 36 30.24 36 18 36 C11.66903184 24.1294347 5.60529904 12.22831998 0 0 Z " fill="#EA97FF" transform="translate(108,0)"/>
</svg>
